<svg xmlns="http://www.w3.org/2000/svg" viewBox="0 0 256 256"><defs><style>.cls-1{fill:#1d384d;}</style></defs><title>email transfer</title><g id="icons_without_caption" data-name="icons without caption"><g id="EMAIL_TRANSFER" data-name="EMAIL TRANSFER"><polygon class="cls-1" points="201.62 125.01 201.62 208.05 54.38 208.05 54.38 125.01 58.38 125.01 58.38 204.05 197.62 204.05 197.62 125.01 201.62 125.01"/><path class="cls-1" d="M97.44,90.62a9.92,9.92,0,0,0,1.34,1.1l-2.14,1.81a12,12,0,0,1-.94-.82Z"/><path class="cls-1" d="M107.39,84.42l-2.46,2.08c-.53-.2-1.12-.39-1.76-.59-.92-.3-1.81-.59-2.64-.92L103,82.87h0l1,.33A31.36,31.36,0,0,1,107.39,84.42Z"/><path class="cls-1" d="M109.73,77.2l-.94,1.15-.24-.16Z"/><path class="cls-1" d="M160.78,89.92a5.73,5.73,0,0,1-1.49,4L157,92a2.89,2.89,0,0,0,.68-1.93c0-2.4-1.92-3.2-5-4.16-3.66-1.18-7-2.32-7-6.3a6,6,0,0,1,.33-2l2.7,2.26,3.42,2.86h0Z"/><polygon class="cls-1" points="53.56 124.77 54.38 125.74 56.15 127.83 58.38 125.94 59.36 125.11 70.7 115.5 74.7 112.11 74.7 106.86 70.7 110.25 53.56 124.77"/><polygon class="cls-1" points="184.22 109.52 180.22 106.18 180.22 111.39 184.22 114.74 196.63 125.12 197.62 125.95 199.87 127.83 201.62 125.74 202.44 124.76 184.22 109.52"/><path class="cls-1" d="M70.7,48v93.76l4,3.89V52H180.22v94.7l4-3.89V48Z"/><rect class="cls-1" x="95.23" y="112.8" width="65.54" height="4"/><rect class="cls-1" x="95.23" y="130.66" width="65.54" height="4"/><polygon class="cls-1" points="124.94 147.64 120.45 151.64 95.23 151.64 95.23 147.64 124.94 147.64"/><polygon class="cls-1" points="160.77 147.64 160.77 151.64 135.55 151.64 131.06 147.64 160.77 147.64"/><path class="cls-1" d="M107.4,84.42h0A31.36,31.36,0,0,0,104,83.2l-1-.33h0c-2.27-.79-3.83-1.6-3.83-3.44s1.63-3.05,4-3.05a10.31,10.31,0,0,1,5.39,1.81l.24.16.94-1.15,0,0h0l.7-.88a13.61,13.61,0,0,0-5.7-2.43V69.47h-2.23V73.7c-4.09.2-6.35,2.66-6.35,5.91,0,3,1.87,4.37,4.34,5.38.83.33,1.72.62,2.64.92.64.2,1.23.39,1.76.59,2,.77,3.25,1.67,3.25,3.57,0,2.1-1.83,3.33-4.29,3.33a9.15,9.15,0,0,1-5.11-1.68,9.92,9.92,0,0,1-1.34-1.1L95.7,92.71a12,12,0,0,0,.94.82A11.39,11.39,0,0,0,102.53,96v4.08h2.24V96c4.06-.33,6.46-2.73,6.46-6.14C111.23,86.9,109.71,85.46,107.4,84.42Z"/><path class="cls-1" d="M128.78,83.2C126,82.28,124,81.52,124,79.43s1.63-3.05,4-3.05a10.38,10.38,0,0,1,5.63,2l1.68-2.07a13.55,13.55,0,0,0-5.7-2.43V69.47h-2.23V73.7c-4.08.2-6.35,2.66-6.35,5.91,0,4,3.33,5.12,7,6.3,3.09,1,5,1.76,5,4.16,0,2.1-1.82,3.33-4.29,3.33a9.51,9.51,0,0,1-6.45-2.78l-1.74,2.09A11.6,11.6,0,0,0,127.31,96v4.08h2.23V96c4.07-.33,6.47-2.73,6.47-6.14C136,85.6,132.89,84.5,128.78,83.2Z"/><path class="cls-1" d="M153.55,83.2c-.48-.16-.93-.31-1.36-.47h0c-1.87-.68-3.2-1.42-3.42-2.86a3.14,3.14,0,0,1,0-.44c0-2,1.64-3.05,4-3.05a10.38,10.38,0,0,1,5.63,2L160,76.28a13.55,13.55,0,0,0-5.7-2.43V69.47h-2.23V73.7c-3.19.16-5.27,1.69-6,3.91a6,6,0,0,0-.33,2c0,4,3.33,5.12,7,6.3,3.08,1,5,1.76,5,4.16A2.89,2.89,0,0,1,157,92a4.56,4.56,0,0,1-3.61,1.4A9.47,9.47,0,0,1,147,90.62l-1.75,2.09A11.63,11.63,0,0,0,152.08,96v4.08h2.23V96a7.44,7.44,0,0,0,5-2.14,5.73,5.73,0,0,0,1.49-4v0C160.78,85.6,157.66,84.5,153.55,83.2Z"/><path class="cls-1" d="M198.23,123.57l-1.6,1.55-12.41,12.07-4,3.88-24.16,23.48-14.49-12.91-4.49-4-7.75-6.91h-2.66l-7.75,6.91-4.49,4L99.94,164.55,74.7,140l-4-3.89-11.34-11-1.59-1.54L54.38,125v81l1.49.67.51,1.33H199.62l.51-1.33,1.49-.67V125Zm-18,23.08,4-3.89,13.4-13v71.85l-13.4-12-4-3.57L160.77,168.7l-1.54-1.38-.15-.13ZM58.38,129.74l12.32,12,4,3.89,22.22,21.59-.15.13-1.54,1.38L74.7,187l-4,3.57-12.32,11ZM61.63,204l13.16-11.73,4.49-4,19.08-17,4.49-4,17.6-15.68,4.49-4,3.06-2.73,3.06,2.73,4.49,4,17.6,15.68,4.49,4,19.08,17,4.49,4L194.37,204Z"/></g></g></svg>